<svg version="1.0" xmlns="http://www.w3.org/2000/svg" width="568.000000pt" height="544.000000pt" viewBox="0 0 568.000000 544.000000" preserveAspectRatio="xMidYMid meet" style="width: 743.959px; height: auto;"> <g transform="translate(0.000000,544.000000) scale(0.100000,-0.100000)" fill="#000000" stroke="none" class="">  <path d="M2345 3411 c-16 -4 -29 -12 -28 -19 2 -6 -4 -9 -12 -6 -9 4 -19 -4 -27 -23 -7 -15 -17 -31 -22 -34 -14 -11 -16 -78 -1 -92 7 -7 16 -23 19 -35 11 -34 49 -53 104 -55 51 -1 108 25 97 44 -4 5 -1 8 5 7 7 -2 19 16 28 39 14 37 14 48 3 80 -15 43 -64 93 -92 93 -9 0 -23 2 -31 4 -7 2 -26 0 -43 -3z m50 -111 c3 -6 -1 -7 -9 -4 -18 7 -21 14 -7 14 6 0 13 -4 16 -10z m-38 -32 c-3 -7 -5 -2 -5 12 0 14 2 19 5 13 2 -7 2 -19 0 -25z m38 -8 c-3 -5 -12 -10 -18 -10 -7 0 -6 4 3 10 19 12 23 12 15 0z" stroke-width="2" data-original-fill="none" data-original-stroke="none" data-original-stroke-width="1" data-original-opacity="1" fill="#ff0000" stroke="#ff0000" opacity="0.7"></path> <path d="M2660 3094 c-14 -7 -41 -29 -60 -49 l-35 -36 4 -317 3 -316 26 -46 c15 -25 25 -51 24 -59 -2 -7 1 -10 7 -6 7 3 11 -2 11 -14 0 -11 4 -22 9 -25 4 -3 22 -34 39 -70 17 -35 35 -67 41 -71 6 -3 9 -11 6 -16 -4 -5 -1 -9 6 -9 7 0 9 -3 6 -7 -4 -3 3 -20 16 -37 13 -17 29 -47 37 -66 7 -19 21 -46 30 -60 18 -26 73 -129 76 -142 1 -5 2 -9 4 -10 1 -2 3 -11 5 -20 4 -19 -10 -26 -45 -22 -146 17 -149 17 -177 -10 -22 -22 -45 -32 -56 -23 -2 1 -10 -5 -19 -13 -9 -10 -17 -45 -22 -95 -7 -83 -8 -91 -27 -238 -7 -52 -8 -92 -3 -97 22 -20 110 -63 134 -64 35 -2 50 -13 50 -40 0 -40 -21 -57 -77 -59 -28 -1 -49 -5 -46 -9 2 -5 -3 -8 -11 -8 -26 0 -35 -30 -20 -65 7 -18 15 -43 18 -56 13 -68 56 -134 103 -155 50 -24 60 -39 68 -103 9 -68 16 -86 35 -86 16 0 36 -34 43 -75 3 -14 7 -32 10 -40 3 -8 8 -27 11 -42 5 -20 10 -25 26 -21 24 6 74 -12 116 -43 23 -17 37 -40 50 -81 10 -32 18 -60 17 -63 -1 -3 26 -17 60 -30 41 -17 78 -41 109 -73 l46 -47 296 -3 c244 -2 293 0 279 11 -10 7 -18 16 -18 20 0 4 -9 20 -20 36 -11 16 -20 36 -22 45 -1 9 -7 17 -12 19 -6 2 -11 8 -11 13 0 6 -11 34 -23 62 -27 59 -33 81 -43 152 -3 28 -10 57 -15 66 -10 21 -58 17 -215 -15 -66 -14 -129 -23 -140 -22 -10 2 -26 0 -35 -5 -10 -5 -23 -3 -35 7 -11 9 -12 12 -4 8 8 -4 5 3 -7 15 -21 20 -27 34 -24 54 0 4 -5 7 -13 7 -20 0 -46 39 -46 70 0 14 11 42 25 61 13 20 21 39 18 43 -4 3 -1 6 6 6 7 0 10 4 7 8 -3 5 17 31 44 57 51 50 62 75 34 75 -8 0 -13 4 -10 9 4 5 -6 7 -21 5 -58 -9 -262 -16 -287 -10 -46 11 -76 52 -76 101 0 24 4 55 10 70 16 42 15 115 -1 126 -8 5 -10 9 -5 9 5 0 -1 11 -14 25 -13 14 -20 25 -15 25 5 0 -1 10 -12 22 -12 13 -42 66 -68 118 -26 52 -54 103 -63 113 -23 26 -23 118 1 144 9 11 25 20 35 20 25 2 122 -26 122 -35 0 -4 14 -13 30 -20 17 -8 46 -29 65 -48 19 -18 35 -31 35 -28 0 3 35 -32 78 -77 169 -181 218 -226 287 -264 39 -21 72 -42 75 -46 3 -4 17 -11 33 -14 15 -4 24 -12 20 -18 -3 -5 -2 -7 4 -4 5 4 41 -7 79 -23 79 -33 161 -45 287 -44 82 1 89 2 117 29 17 16 44 57 60 92 52 109 86 104 118 -17 35 -133 46 -224 33 -273 -14 -50 -2 -117 28 -152 22 -27 53 -74 70 -107 8 -16 18 -28 23 -28 5 0 7 -4 4 -8 -6 -10 48 -63 109 -107 62 -46 197 -156 230 -187 16 -16 34 -27 39 -25 6 2 20 -10 31 -27 11 -17 31 -36 43 -42 12 -6 19 -14 15 -17 -3 -4 1 -7 10 -7 10 0 35 -17 56 -37 23 -21 50 -37 65 -38 14 0 26 0 26 2 0 1 -43 36 -95 78 -52 42 -95 81 -95 86 0 6 -4 8 -9 5 -5 -4 -11 -3 -13 1 -1 5 -25 26 -53 48 -27 22 -58 49 -68 60 -10 11 -15 13 -11 5 4 -8 -8 -1 -28 15 -41 34 -47 52 -47 148 0 37 -3 73 -7 79 -4 5 -26 19 -49 29 -51 23 -112 81 -132 128 -10 23 -12 49 -8 80 5 41 3 50 -19 74 -35 38 -42 54 -50 112 -4 28 -17 70 -28 95 -47 102 -94 195 -105 208 -7 7 -13 20 -13 28 0 8 -4 14 -10 14 -5 0 -10 7 -10 15 0 8 -5 15 -11 15 -5 0 -8 4 -5 9 3 5 -1 11 -9 15 -8 3 -15 11 -15 17 0 6 -8 19 -17 28 -47 43 -53 59 -68 172 -13 104 -36 218 -65 324 -6 22 -15 63 -20 90 -19 102 -16 96 -92 189 -15 18 -24 36 -20 40 4 4 2 6 -3 4 -14 -4 -56 27 -47 36 4 4 2 6 -4 4 -6 -2 -29 11 -50 29 -21 18 -68 56 -104 85 -35 29 -72 60 -81 68 -9 8 -28 24 -43 34 -15 11 -36 27 -46 35 -52 45 -61 51 -69 51 -14 0 -41 36 -34 45 5 4 3 5 -3 2 -6 -3 -31 13 -56 36 -25 23 -48 42 -51 42 -7 0 -189 155 -199 170 -4 5 -8 7 -8 4 0 -4 -17 10 -39 30 -50 47 -71 64 -96 77 -11 6 -19 16 -17 22 1 7 -2 11 -7 10 -5 -2 -16 5 -23 15 -7 9 -23 19 -36 22 -12 2 -27 7 -33 10 -20 13 -94 12 -119 -1z m292 -306 c132 -134 240 -246 239 -250 0 -5 5 -8 13 -8 8 0 18 -9 21 -20 4 -11 11 -17 17 -14 7 4 8 2 4 -4 -4 -7 -1 -12 7 -12 18 0 69 -54 60 -64 -5 -4 -1 -6 7 -4 9 2 14 -3 12 -12 -2 -8 0 -12 4 -7 9 9 64 -41 64 -59 0 -6 7 -14 15 -18 18 -6 10 -32 -18 -61 -11 -11 -16 -13 -12 -5 4 8 -16 -10 -45 -40 -29 -30 -50 -50 -46 -44 3 7 -5 15 -20 18 -15 4 -24 9 -22 12 3 2 -52 61 -121 131 -69 70 -119 123 -111 118 20 -11 13 -4 -38 39 -24 20 -41 36 -36 36 4 0 -4 9 -17 21 -13 12 -23 26 -21 31 1 5 -2 7 -7 4 -5 -4 -18 5 -28 19 -10 14 -55 64 -100 111 -46 47 -83 90 -83 95 0 5 -7 9 -15 9 -8 0 -15 4 -15 8 0 4 -18 28 -40 52 -42 46 -50 79 -25 100 8 7 15 19 15 27 0 16 34 31 73 32 24 1 66 -37 269 -241z" class=""></path> <path d="M2725 3000 c10 -11 20 -20 23 -20 3 0 -3 9 -13 20 -10 11 -20 20 -23 20 -3 0 3 -9 13 -20z"></path>  <path d="M3365 2360 c10 -11 20 -20 23 -20 3 0 -3 9 -13 20 -10 11 -20 20 -23 20 -3 0 3 -9 13 -20z"></path> <path d="M3100 2366 c0 -2 8 -10 18 -17 15 -13 16 -12 3 4 -13 16 -21 21 -21 13z"></path> </g> </svg>